Coordinates
version=1
nRows=10
nColumns=34
inDegrees=yes

Units are S.I. units (second, meters, Newtons, ...)
If the header above contains a line with 'inDegrees', this indicates whether rotational values are in degrees (yes) or radians (no).

endheader
time	pelvis_tilt	pelvis_list	pelvis_rotation	pelvis_tx	pelvis_ty	pelvis_tz	hip_flexion_r	hip_adduction_r	hip_rotation_r	knee_angle_r	ankle_angle_r	subtalar_angle_r	mtp_angle_r	hip_flexion_l	hip_adduction_l	hip_rotation_l	knee_angle_l	ankle_angle_l	subtalar_angle_l	mtp_angle_l	lumbar_extension	lumbar_bending	lumbar_rotation	arm_flex_r	arm_add_r	arm_rot_r	elbow_flex_r	pro_sup_r	arm_flex_l	arm_add_l	arm_rot_l	elbow_flex_l	pro_sup_l
      0.00000000	      3.93549729	     -3.94374774	     -7.14526312	     -6.44122473	      0.98364576	     -0.99636882	      8.10960234	      4.36263155	     -5.60925156	     20.86437829	      7.54579290	    -14.97721877	      0.00000000	     -7.12818974	     -7.89169549	      2.66639320	     18.87630821	     14.49089789	     -8.39549138	      0.00000000	    -11.29351958	      3.48901558	      0.07822849	      1.60394867	     -5.32942799	      8.77613204	     56.00526400	     87.70453119	     -8.46638491	     -4.16421679	     -6.81255829	     80.57050222	    102.76120918
      0.01666670	      7.42123824	     -3.56640820	     -7.40754391	     -6.44206047	      0.99243091	     -0.99376481	      3.37187859	      4.39628642	     -4.17131652	     19.64887071	      8.50617904	    -14.86728129	      0.00000000	    -10.06331401	     -6.20422909	      4.89190203	     19.71568626	     14.04921379	    -10.20727906	      0.00000000	    -16.07392463	      2.98178562	      0.48798118	      2.14739532	     -5.08814298	      6.60534835	     58.45189688	     88.01035071	     -7.59460995	     -4.29651107	     -8.76248561	     81.37504356	    101.97794112
      0.03333330	      8.73213992	     -3.57087684	     -7.84620239	     -6.43946049	      0.99451502	     -0.98919361	      1.12087349	      4.57723548	     -5.09224335	     18.16374572	      8.08889450	    -13.95650097	      0.00000000	    -11.28723010	     -5.88292667	      5.11423601	     20.64695046	     13.96809472	    -11.45663636	      0.00000000	    -18.04762176	      2.75396808	      1.53602016	      1.89754154	     -5.66961981	      5.67406961	     60.77789428	     88.92198643	     -7.24680294	     -5.36916816	     -7.77897435	     83.17820826	    101.35502725
      0.05000000	     11.03991428	     -4.17445569	     -7.63795815	     -6.43477716	      0.99633215	     -0.98469244	     -2.27750261	      5.13697991	     -4.77963495	     17.20036699	      7.88136190	    -13.01976151	      0.00000000	    -14.12975723	     -6.25514472	      5.47935309	     20.95666289	     13.22621432	    -13.10435324	      0.00000000	    -20.69813041	      3.25334700	      2.18655932	      1.67915588	     -6.31293752	      5.32159942	     62.74420827	     89.94884091	     -6.58517763	     -5.56244730	     -6.92670627	     84.51103795	    101.12243298
      0.06666670	     12.53263294	     -4.80757982	     -7.34782374	     -6.42899824	      0.99474719	     -0.98014665	     -4.87639283	      5.94072669	     -4.50675650	     16.48153658	      8.13414390	    -12.67215927	      0.00000000	    -15.83775036	     -6.97990995	      5.56725024	     21.69676786	     12.80885132	    -14.16160134	      0.00000000	    -22.37685349	      3.95497278	      2.59339050	      1.01860137	     -6.83966792	      5.22453430	     65.11431449	     91.14398743	     -6.76093021	     -5.62677394	     -5.92798473	     86.73790450	    101.24180357
      0.08333330	     13.01412588	     -5.33612271	     -6.97155846	     -6.42271697	      0.99175579	     -0.97602628	     -6.38537961	      6.81022618	     -4.07344608	     15.76763292	      8.48273935	    -12.70499488	      0.00000000	    -16.19861473	     -7.82478564	      5.55390246	     22.87477390	     12.93440090	    -14.64421533	      0.00000000	    -22.10609723	      4.78886224	      2.68930800	      0.54946305	     -7.09996309	      5.21592361	     65.38190969	     91.37521593	     -7.17000359	     -5.38270156	     -5.52882311	     87.42723796	    101.32963721
      0.10000000	     14.71720759	     -5.87887224	     -6.32217116	     -6.41721675	      0.99155673	     -0.97270681	     -9.55147058	      7.55995087	     -3.76501307	     14.38574355	      7.93182832	    -13.07940828	      0.00000000	    -18.09863782	     -8.57884459	      5.74826052	     23.40195839	     12.57974849	    -15.40339319	      0.00000000	    -23.88492819	      5.44095746	      2.54449466	     -0.12851792	     -7.64200030	      5.36797960	     67.47480198	     92.50724784	     -7.66255975	     -5.58449678	     -4.76439510	     89.63683674	    101.85690940
      0.11666670	     14.95523188	     -6.20181296	     -5.98182419	     -6.41143730	      0.99191588	     -0.96887353	    -10.97264646	      8.26264799	     -3.38921353	     13.21316461	      8.19304048	    -13.13735604	      0.00000000	    -18.19559081	     -9.24352651	      5.75507234	     24.36752054	     12.34454510	    -15.61469332	      0.00000000	    -23.27290005	      6.09270254	      2.50688347	     -0.84571237	     -7.87390205	      5.34206938	     67.35067386	     92.70086870	     -8.38358983	     -5.35036699	     -4.59693985	     89.82429123	    101.97179089
      0.13333330	     15.31156913	     -6.46982607	     -5.56626352	     -6.40727171	      0.99370199	     -0.96532300	    -12.53479197	      8.91737821	     -3.12813704	     11.83113992	      8.00557844	    -13.11573884	      0.00000000	    -18.23738808	     -9.84861772	      5.76339596	     25.48453576	     11.75287181	    -15.87475872	      0.00000000	    -22.91019279	      6.70357297	      2.28289720	     -1.44764242	     -8.03931984	      5.38263397	     67.17929119	     92.92641569	     -9.05442730	     -5.19319984	     -4.45819398	     89.82740221	    102.11872953
      0.15000000	     16.13001834	     -6.52163456	     -5.10008161	     -6.40487342	      0.99561525	     -0.96243562	    -14.41439055	      9.29655464	     -2.87405739	     10.54931894	      7.05383728	    -13.54804608	      0.00000000	    -18.58697695	    -10.03315899	      6.27501821	     26.67979434	      9.96372972	    -17.67177262	      0.00000000	    -23.25524809	      7.02976332	      1.57469651	     -1.43847529	     -8.15356496	      5.94158208	     66.66319870	     94.11556971	     -9.61686602	     -5.00645637	     -4.80013336	     89.61660065	    102.87747491
